<svg xmlns="http://www.w3.org/2000/svg" width="64" height="64"><path d="M45.438 6.556C41.855 2.973 37.084 1 32.002 1c-5.083 0-9.856 1.974-13.44 5.557-7.29 7.289-7.388 19.245-.22 26.651l.175.246 4.077 8.112 1.788-.898-4.29-8.537-.114-.114c-6.63-6.63-6.63-17.417-.001-24.047C23.182 4.764 27.452 2.998 32 2.998s8.818 1.766 12.024 4.972c6.591 6.593 6.628 17.296.111 23.934l-4.532 8.767 1.778.898 4.275-8.359c7.171-7.409 7.073-19.365-.218-26.654zm-6.31 40.554l-14.017 1.696-.24-1.987 14.017-1.696zm-.003 6.004L25.108 54.81l-.24-1.988 14.017-1.695zm-4.344 5.885c-.413 1.164-1.525 2-2.829 2s-2.416-.836-2.829-2h-2.071a5.009 5.009 0 004.9 4.001 4.963 4.963 0 003.534-1.467 4.955 4.955 0 001.366-2.534h-2.071z"/><path d="M31 11.046V9.035a10.914 10.914 0 00-6.775 3.181 10.922 10.922 0 00-3.181 6.776h2.011A9.019 9.019 0 0131 11.046z"/></svg>