<svg xmlns="http://www.w3.org/2000/svg" width="70" height="64"><path d="M13.366 53.418a9.542 9.542 0 01-5.672-1.855 9.546 9.546 0 01-3.818-6.287 9.545 9.545 0 011.744-7.145 9.54 9.54 0 015.309-3.618l-.353-2.29a11.836 11.836 0 00-6.816 4.544 11.831 11.831 0 00-2.164 8.86 11.826 11.826 0 004.734 7.795 11.814 11.814 0 007.028 2.301c3.458 0 6.755-1.512 9.004-4.087l-1.869-1.369a9.657 9.657 0 01-7.127 3.151zm53.971-4.398a11.832 11.832 0 00.548-9.106 11.836 11.836 0 00-5.173-6.349l-1.014 2.083a9.542 9.542 0 014.007 5.023 9.537 9.537 0 01-.442 7.341 9.554 9.554 0 01-5.504 4.883 9.622 9.622 0 01-7.345-.443 9.545 9.545 0 01-4.883-5.503 9.55 9.55 0 01.054-6.423l-2.084-1.013a11.805 11.805 0 00-.148 8.185 11.825 11.825 0 006.051 6.827 11.88 11.88 0 009.107.547 11.838 11.838 0 006.826-6.052z"/><path d="M55.245 43.145l2.225-.605-6.155-22.702v-3.021h-2.308v2.526l-20.686 8.273L10.25 41.079l.003 3.881h23.269l16.164-22.194 5.559 20.379zm-22.895-.492H11.992l17.329-12.954 17.583-7.031L32.35 42.653zm25.176-34.17l.56 2.236-6.67 1.673-.561-2.236zM32.142 19.269l-10.944 1.829-.38-2.275 10.944-1.828z"/></svg>