<svg xmlns="http://www.w3.org/2000/svg" viewBox="-279 123.8 64 64"><path d="M-232.1 168.5l-13.9-13.4v-19.6h-2v20.4l14.5 14.1z"/><path d="M-267.4 176.1c-5.4-5.2-8.7-12.5-8.7-20.5 0-13.8 9.8-25.7 23.2-28.5l-.4-2c-14.4 2.9-24.9 15.7-24.9 30.4 0 17.1 13.9 31.1 31.1 31.1h.3c5.9 0 11.9-1.7 17.1-5.1l-1.1-1.7c-11.5 7.5-26.9 6-36.6-3.7zm51.6-20.6c0-2.4-.3-4.7-.8-6.9-1.3-5.6-4.1-10.8-8.3-15.1l-.1.1c-4.2-4.2-9.7-7.3-15.9-8.5l-.4 2c10.4 2.1 18.7 9.7 21.9 19.3.1.3.2.7.3 1 .1.2.1.4.2.7 2.1 7.8.9 16.5-3.8 23.6l1.7 1.1c3.5-5.4 5.1-11.3 5.2-17.3z"/></svg>