<svg xmlns="http://www.w3.org/2000/svg" width="77" height="64"><path d="M25.417 42.401h26.167v1.968H25.417zM38.861 2.983h-.723c-13.185 0-23.981 9.023-24.587 20.315h1.971c.612-10.204 10.522-18.347 22.617-18.347h.723c12.095 0 22.007 8.143 22.617 18.348h1.971C62.844 12.008 52.047 2.983 38.861 2.983z"/><path d="M64.73 26.231c-5.031 0-9.127 4.094-9.127 9.127v8.959h1.969v-8.959c0-3.948 3.211-7.159 7.158-7.159s7.156 3.211 7.156 7.159c0 3.947-3.209 7.158-7.156 7.158h-.982l.008 7.83c.1 1.004-.053 3.375-1.359 4.813-.857.946-2.082 1.407-3.738 1.407H18.343c-1.66 0-2.884-.461-3.744-1.408-1.304-1.436-1.458-3.801-1.356-4.85l.006-7.793h-.983c-3.947 0-7.158-3.213-7.158-7.16s3.211-7.158 7.158-7.158c3.948 0 7.16 3.211 7.16 7.158v8.959h1.968v-8.959c0-5.032-4.095-9.126-9.127-9.126-5.032 0-9.125 4.094-9.125 9.126 0 4.338 3.086 8.103 7.337 8.951l.804.16v5.635c-.058.729-.222 4.061 1.84 6.355a5.871 5.871 0 001.933 1.409l.581.269v2.881h12.888v-2.481h19.948v2.481H61.36v-2.879l.582-.269a5.954 5.954 0 001.936-1.412c2.066-2.302 1.896-5.627 1.844-6.271l-.004-5.721.805-.16c4.25-.848 7.336-4.611 7.336-8.949-.005-5.028-4.097-9.123-9.129-9.123z"/></svg>