<svg xmlns="http://www.w3.org/2000/svg" viewBox="-400 96.1 64 64"><path d="M-337.6 136.6l-6.2-21.4c-.1-.3-.3-.5-.5-.6l-11.7-5.4 4.3-9.8c.2-.4.1-.8-.2-1.1-.3-.3-.7-.4-1-.3l-21.4 6.2c-.3.1-.5.3-.6.5l-5.4 11.6-9.6-4.3c-.4-.2-.8-.1-1.1.2-.3.3-.4.7-.3 1l6.2 21.4c.1.3.3.5.5.6l1.4.7-14.6 14.6c-1.6 1.6-1.6 4.2 0 5.8l1 1c.8.8 1.9 1.2 2.9 1.2 1.1 0 2.1-.4 2.9-1.2l17.1-17.1.9.4-4.3 9.8c-.2.4-.1.8.2 1.1.2.2.5.3.8.3h.3l21.4-6.2c.3-.1.5-.3.6-.5l5.4-11.6 9.6 4.3c.1.1.3.1.4.1.2 0 .5-.1.7-.2.3-.3.4-.7.3-1.1zm-9.2-21l-14.1 5.4-.3-.3 4.4-9.8 10 4.7zm-21.4 9.3c0-2.1 1.7-3.8 3.8-3.8 2.1 0 3.8 1.7 3.8 3.8s-1.7 3.8-3.8 3.8c-2.1 0-3.8-1.7-3.8-3.8zm5.2-5c-.5-.1-.9-.2-1.4-.2-1.2 0-2.2.4-3.1 1l-5.6-14.7 18.8-5.5-8.7 19.4zm-10.9-12.7l5.5 14.3s-.1.1-.1.2l-10-4.4 4.6-10.1zm-14.9 7.6l19.3 8.6c-.2.5-.3 1-.3 1.6 0 1.1.4 2.2 1 3l-14.6 5.6-5.4-18.8zm-3.5 41.3c-.8.8-2.2.8-3 0l-1-1c-.8-.8-.8-2.2 0-3l15.1-15.1 5.5 2.6-16.6 16.5zm10.2-21.8l14.1-5.4.3.3-4.4 9.8-10-4.7zm16.2-4.3c.5.1.9.2 1.4.2 1.2 0 2.2-.4 3.1-1l5.6 14.7-18.8 5.5 8.7-19.4zm10.9 12.7l-5.5-14.3s.1-.1.1-.2l10 4.4-4.6 10.1zm-4.4-16.2c.2-.5.3-1 .3-1.6 0-1.1-.4-2.2-1-3l14.6-5.6 5.5 18.8-19.4-8.6z"/></svg>