<svg xmlns="http://www.w3.org/2000/svg" width="64" height="64"><path d="M40.104 1.417l-4.908 4.958a15.345 15.345 0 00-4.528 10.923 15.34 15.34 0 004.524 10.916 15.346 15.346 0 0010.918 4.523c4.121 0 7.998-1.605 10.916-4.521l4.961-4.948L40.104 1.417zm15.43 25.305a13.249 13.249 0 01-9.425 3.904 13.24 13.24 0 01-9.426-3.905 13.248 13.248 0 01-3.908-9.424c0-3.56 1.391-6.911 3.916-9.437l3.42-3.455 18.887 18.862-3.464 3.455z"/><path d="M46.823 38.41l-5.605 14.943-34.934 6.435L21.2 45.69l.651.393a7.178 7.178 0 003.708 1.039c3.981 0 7.22-3.238 7.22-7.22 0-3.98-3.239-7.219-7.22-7.219-3.98 0-7.219 3.238-7.219 7.219 0 1.259.338 2.506.977 3.607l.397.685L4.33 58.734l3.721-32.562 17.147-9.524-1.025-1.845L6.079 24.856 1.746 62.771l41.032-7.56 6.022-16.06-1.977-.741zm-21.264-3.617c2.817 0 5.11 2.292 5.11 5.109s-2.292 5.109-5.11 5.109c-2.817 0-5.109-2.292-5.109-5.109s2.292-5.109 5.109-5.109z"/></svg>