<?xml version="1.0" encoding="utf-8"?><svg xmlns="http://www.w3.org/2000/svg" xmlns:xlink="http://www.w3.org/1999/xlink"><symbol viewBox="0 0 15 8" id="arrow_down" xmlns="http://www.w3.org/2000/svg"><path d="M14.1.6L7.5 7.2.9.6"/></symbol><symbol viewBox="0 0 77 64" id="header-icon" xmlns="http://www.w3.org/2000/svg"><path d="M25.417 42.401h26.167v1.968H25.417zM38.861 2.983h-.723c-13.185 0-23.981 9.023-24.587 20.315h1.971c.612-10.204 10.522-18.347 22.617-18.347h.723c12.095 0 22.007 8.143 22.617 18.348h1.971C62.844 12.008 52.047 2.983 38.861 2.983z"/><path d="M64.73 26.231c-5.031 0-9.127 4.094-9.127 9.127v8.959h1.969v-8.959c0-3.948 3.211-7.159 7.158-7.159s7.156 3.211 7.156 7.159c0 3.947-3.209 7.158-7.156 7.158h-.982l.008 7.83c.1 1.004-.053 3.375-1.359 4.813-.857.946-2.082 1.407-3.738 1.407H18.343c-1.66 0-2.884-.461-3.744-1.408-1.304-1.436-1.458-3.801-1.356-4.85l.006-7.793h-.983c-3.947 0-7.158-3.213-7.158-7.16s3.211-7.158 7.158-7.158c3.948 0 7.16 3.211 7.16 7.158v8.959h1.968v-8.959c0-5.032-4.095-9.126-9.127-9.126-5.032 0-9.125 4.094-9.125 9.126 0 4.338 3.086 8.103 7.337 8.951l.804.16v5.635c-.058.729-.222 4.061 1.84 6.355a5.871 5.871 0 001.933 1.409l.581.269v2.881h12.888v-2.481h19.948v2.481H61.36v-2.879l.582-.269a5.954 5.954 0 001.936-1.412c2.066-2.302 1.896-5.627 1.844-6.271l-.004-5.721.805-.16c4.25-.848 7.336-4.611 7.336-8.949-.005-5.028-4.097-9.123-9.129-9.123z"/></symbol><symbol viewBox="0 0 64 64" id="header-icon_2" xmlns="http://www.w3.org/2000/svg"><path d="M27 10.002c0-4.962-4.037-9-8.999-9-4.962 0-9 4.038-9 9v25h2v-25c0-3.86 3.14-7 7-7 3.859 0 6.999 3.14 6.999 7V58c0 1.654-1.346 3-3 3a3.003 3.003 0 01-2.999-3V37.002h-2V58c0 2.757 2.243 5 4.999 5 2.757 0 5-2.243 5-5V10.002zm22 17.412l5.999-6V2H53v18.585l-6 6v32.411c0 1.654-1.346 3-3 3s-3-1.346-3-3V26.585l-6-6V2h-2v19.413l6 6v31.583c0 2.758 2.243 5 5 5s5-2.242 5-5V27.414z"/><path d="M43.001 1.004h2v18h-2z"/></symbol><symbol viewBox="-265 388.9 64 64" id="header-icon_3" xmlns="http://www.w3.org/2000/svg"><path d="M-209.5 451.9h-47v-25.6h2v23.6h43v-23.6h2zm6.5-27l-30-31.9-30 31.9-1.5-1.3L-233 390l31.5 33.6z"/><path d="M-225.9 444.7h-2v-15.3h-10.2v15.3h-2v-17.3h14.2zm-7.1-23.5c-3.9 0-7.1-3.2-7.1-7.1s3.2-7.1 7.1-7.1 7.1 3.2 7.1 7.1-3.2 7.1-7.1 7.1zm0-12.3c-2.8 0-5.1 2.3-5.1 5.1s2.3 5.1 5.1 5.1 5.1-2.3 5.1-5.1-2.3-5.1-5.1-5.1z"/></symbol><symbol viewBox="0 0 64 64" id="header-icon_4" xmlns="http://www.w3.org/2000/svg"><path d="M45.438 6.556C41.855 2.973 37.084 1 32.002 1c-5.083 0-9.856 1.974-13.44 5.557-7.29 7.289-7.388 19.245-.22 26.651l.175.246 4.077 8.112 1.788-.898-4.29-8.537-.114-.114c-6.63-6.63-6.63-17.417-.001-24.047C23.182 4.764 27.452 2.998 32 2.998s8.818 1.766 12.024 4.972c6.591 6.593 6.628 17.296.111 23.934l-4.532 8.767 1.778.898 4.275-8.359c7.171-7.409 7.073-19.365-.218-26.654zm-6.31 40.554l-14.017 1.696-.24-1.987 14.017-1.696zm-.003 6.004L25.108 54.81l-.24-1.988 14.017-1.695zm-4.344 5.885c-.413 1.164-1.525 2-2.829 2s-2.416-.836-2.829-2h-2.071a5.009 5.009 0 004.9 4.001 4.963 4.963 0 003.534-1.467 4.955 4.955 0 001.366-2.534h-2.071z"/><path d="M31 11.046V9.035a10.914 10.914 0 00-6.775 3.181 10.922 10.922 0 00-3.181 6.776h2.011A9.019 9.019 0 0131 11.046z"/></symbol><symbol viewBox="-279 123.8 64 64" id="header-icon_5" xmlns="http://www.w3.org/2000/svg"><path d="M-232.1 168.5l-13.9-13.4v-19.6h-2v20.4l14.5 14.1z"/><path d="M-267.4 176.1c-5.4-5.2-8.7-12.5-8.7-20.5 0-13.8 9.8-25.7 23.2-28.5l-.4-2c-14.4 2.9-24.9 15.7-24.9 30.4 0 17.1 13.9 31.1 31.1 31.1h.3c5.9 0 11.9-1.7 17.1-5.1l-1.1-1.7c-11.5 7.5-26.9 6-36.6-3.7zm51.6-20.6c0-2.4-.3-4.7-.8-6.9-1.3-5.6-4.1-10.8-8.3-15.1l-.1.1c-4.2-4.2-9.7-7.3-15.9-8.5l-.4 2c10.4 2.1 18.7 9.7 21.9 19.3.1.3.2.7.3 1 .1.2.1.4.2.7 2.1 7.8.9 16.5-3.8 23.6l1.7 1.1c3.5-5.4 5.1-11.3 5.2-17.3z"/></symbol><symbol viewBox="0 0 64 64" id="header-icon_6" xmlns="http://www.w3.org/2000/svg"><path d="M40.104 1.417l-4.908 4.958a15.345 15.345 0 00-4.528 10.923 15.34 15.34 0 004.524 10.916 15.346 15.346 0 0010.918 4.523c4.121 0 7.998-1.605 10.916-4.521l4.961-4.948L40.104 1.417zm15.43 25.305a13.249 13.249 0 01-9.425 3.904 13.24 13.24 0 01-9.426-3.905 13.248 13.248 0 01-3.908-9.424c0-3.56 1.391-6.911 3.916-9.437l3.42-3.455 18.887 18.862-3.464 3.455z"/><path d="M46.823 38.41l-5.605 14.943-34.934 6.435L21.2 45.69l.651.393a7.178 7.178 0 003.708 1.039c3.981 0 7.22-3.238 7.22-7.22 0-3.98-3.239-7.219-7.22-7.219-3.98 0-7.219 3.238-7.219 7.219 0 1.259.338 2.506.977 3.607l.397.685L4.33 58.734l3.721-32.562 17.147-9.524-1.025-1.845L6.079 24.856 1.746 62.771l41.032-7.56 6.022-16.06-1.977-.741zm-21.264-3.617c2.817 0 5.11 2.292 5.11 5.109s-2.292 5.109-5.11 5.109c-2.817 0-5.109-2.292-5.109-5.109s2.292-5.109 5.109-5.109z"/></symbol><symbol viewBox="0 0 70 64" id="header-icon_7" xmlns="http://www.w3.org/2000/svg"><path d="M13.366 53.418a9.542 9.542 0 01-5.672-1.855 9.546 9.546 0 01-3.818-6.287 9.545 9.545 0 011.744-7.145 9.54 9.54 0 015.309-3.618l-.353-2.29a11.836 11.836 0 00-6.816 4.544 11.831 11.831 0 00-2.164 8.86 11.826 11.826 0 004.734 7.795 11.814 11.814 0 007.028 2.301c3.458 0 6.755-1.512 9.004-4.087l-1.869-1.369a9.657 9.657 0 01-7.127 3.151zm53.971-4.398a11.832 11.832 0 00.548-9.106 11.836 11.836 0 00-5.173-6.349l-1.014 2.083a9.542 9.542 0 014.007 5.023 9.537 9.537 0 01-.442 7.341 9.554 9.554 0 01-5.504 4.883 9.622 9.622 0 01-7.345-.443 9.545 9.545 0 01-4.883-5.503 9.55 9.55 0 01.054-6.423l-2.084-1.013a11.805 11.805 0 00-.148 8.185 11.825 11.825 0 006.051 6.827 11.88 11.88 0 009.107.547 11.838 11.838 0 006.826-6.052z"/><path d="M55.245 43.145l2.225-.605-6.155-22.702v-3.021h-2.308v2.526l-20.686 8.273L10.25 41.079l.003 3.881h23.269l16.164-22.194 5.559 20.379zm-22.895-.492H11.992l17.329-12.954 17.583-7.031L32.35 42.653zm25.176-34.17l.56 2.236-6.67 1.673-.561-2.236zM32.142 19.269l-10.944 1.829-.38-2.275 10.944-1.828z"/></symbol><symbol viewBox="-400 96.1 64 64" id="header-icon_8" xmlns="http://www.w3.org/2000/svg"><path d="M-337.6 136.6l-6.2-21.4c-.1-.3-.3-.5-.5-.6l-11.7-5.4 4.3-9.8c.2-.4.1-.8-.2-1.1-.3-.3-.7-.4-1-.3l-21.4 6.2c-.3.1-.5.3-.6.5l-5.4 11.6-9.6-4.3c-.4-.2-.8-.1-1.1.2-.3.3-.4.7-.3 1l6.2 21.4c.1.3.3.5.5.6l1.4.7-14.6 14.6c-1.6 1.6-1.6 4.2 0 5.8l1 1c.8.8 1.9 1.2 2.9 1.2 1.1 0 2.1-.4 2.9-1.2l17.1-17.1.9.4-4.3 9.8c-.2.4-.1.8.2 1.1.2.2.5.3.8.3h.3l21.4-6.2c.3-.1.5-.3.6-.5l5.4-11.6 9.6 4.3c.1.1.3.1.4.1.2 0 .5-.1.7-.2.3-.3.4-.7.3-1.1zm-9.2-21l-14.1 5.4-.3-.3 4.4-9.8 10 4.7zm-21.4 9.3c0-2.1 1.7-3.8 3.8-3.8 2.1 0 3.8 1.7 3.8 3.8s-1.7 3.8-3.8 3.8c-2.1 0-3.8-1.7-3.8-3.8zm5.2-5c-.5-.1-.9-.2-1.4-.2-1.2 0-2.2.4-3.1 1l-5.6-14.7 18.8-5.5-8.7 19.4zm-10.9-12.7l5.5 14.3s-.1.1-.1.2l-10-4.4 4.6-10.1zm-14.9 7.6l19.3 8.6c-.2.5-.3 1-.3 1.6 0 1.1.4 2.2 1 3l-14.6 5.6-5.4-18.8zm-3.5 41.3c-.8.8-2.2.8-3 0l-1-1c-.8-.8-.8-2.2 0-3l15.1-15.1 5.5 2.6-16.6 16.5zm10.2-21.8l14.1-5.4.3.3-4.4 9.8-10-4.7zm16.2-4.3c.5.1.9.2 1.4.2 1.2 0 2.2-.4 3.1-1l5.6 14.7-18.8 5.5 8.7-19.4zm10.9 12.7l-5.5-14.3s.1-.1.1-.2l10 4.4-4.6 10.1zm-4.4-16.2c.2-.5.3-1 .3-1.6 0-1.1-.4-2.2-1-3l14.6-5.6 5.5 18.8-19.4-8.6z"/></symbol></svg>