<?xml version="1.0" encoding="utf-8"?>
<!-- Generator: Adobe Illustrator 15.0.2, SVG Export Plug-In . SVG Version: 6.00 Build 0)  -->
<!DOCTYPE svg PUBLIC "-//W3C//DTD SVG 1.1//EN" "http://www.w3.org/Graphics/SVG/1.1/DTD/svg11.dtd">
<svg version="1.1" id="Layer_1" xmlns="http://www.w3.org/2000/svg" xmlns:xlink="http://www.w3.org/1999/xlink" x="0px" y="0px"
	 width="64px" height="64px" viewBox="0 0 64 64" enable-background="new 0 0 64 64" xml:space="preserve">
<path d="M45.438,6.556C41.855,2.973,37.084,1,32.002,1c-5.083,0-9.856,1.974-13.44,5.557c-7.29,7.289-7.388,19.245-0.22,26.651
	l0.175,0.246l4.077,8.112l1.788-0.898l-4.29-8.537l-0.114-0.114c-6.63-6.63-6.63-17.417-0.001-24.047
	C23.182,4.764,27.452,2.998,32,2.998s8.818,1.766,12.024,4.972c6.591,6.593,6.628,17.296,0.111,23.934l-4.532,8.767l1.778,0.898
	l4.275-8.359C52.827,25.801,52.729,13.845,45.438,6.556z"/>
<rect x="24.939" y="45.968" transform="matrix(-0.9928 0.1201 -0.1201 -0.9928 69.4082 89.7519)" width="14.119" height="2.001"/>
<rect x="24.939" y="51.968" transform="matrix(-0.9928 0.1201 -0.1201 -0.9928 70.1259 101.713)" width="14.119" height="2.002"/>
<path d="M34.781,58.999c-0.413,1.164-1.525,2-2.829,2s-2.416-0.836-2.829-2h-2.071c0.464,2.28,2.485,4.001,4.9,4.001
	c1.334,0,2.589-0.521,3.534-1.467c0.705-0.704,1.174-1.581,1.366-2.534H34.781z"/>
<path d="M31,11.046V9.035c-2.557,0.229-4.934,1.339-6.775,3.181c-1.842,1.843-2.952,4.219-3.181,6.776h2.011
	C23.517,14.827,26.834,11.509,31,11.046z"/>
</svg>
