<?xml version="1.0" encoding="utf-8"?>
<!-- Generator: Adobe Illustrator 19.1.0, SVG Export Plug-In . SVG Version: 6.00 Build 0)  -->
<svg version="1.1" id="Layer_1" xmlns="http://www.w3.org/2000/svg" xmlns:xlink="http://www.w3.org/1999/xlink" x="0px" y="0px"
	 viewBox="-279 123.8 64 64" style="enable-background:new -279 123.8 64 64;" xml:space="preserve">
<g>
	<polygon points="-232.1,168.5 -246,155.1 -246,135.5 -248,135.5 -248,155.9 -233.5,170 	"/>
	<path d="M-267.4,176.1L-267.4,176.1c-5.4-5.2-8.7-12.5-8.7-20.5c0-13.8,9.8-25.7,23.2-28.5l-0.4-2c-14.4,2.9-24.9,15.7-24.9,30.4
		c0,17.1,13.9,31.1,31.1,31.1v0c0.1,0,0.2,0,0.3,0c5.9,0,11.9-1.7,17.1-5.1l-1.1-1.7C-242.3,187.3-257.7,185.8-267.4,176.1z"/>
	<path d="M-215.8,155.5c0-2.4-0.3-4.7-0.8-6.9c-1.3-5.6-4.1-10.8-8.3-15.1l-0.1,0.1c-4.2-4.2-9.7-7.3-15.9-8.5l-0.4,2
		c10.4,2.1,18.7,9.7,21.9,19.3c0.1,0.3,0.2,0.7,0.3,1c0.1,0.2,0.1,0.4,0.2,0.7c2.1,7.8,0.9,16.5-3.8,23.6l1.7,1.1
		C-217.5,167.4-215.9,161.5-215.8,155.5L-215.8,155.5z"/>
</g>
</svg>
