<?xml version="1.0" encoding="utf-8"?>
<!-- Generator: Adobe Illustrator 18.1.1, SVG Export Plug-In . SVG Version: 6.00 Build 0)  -->
<svg version="1.1" id="Layer_1" xmlns="http://www.w3.org/2000/svg" xmlns:xlink="http://www.w3.org/1999/xlink" x="0px" y="0px"
	 viewBox="-400 96.1 64 64" enable-background="new -400 96.1 64 64" xml:space="preserve">
<path d="M-337.6,136.6l-6.2-21.4c-0.1-0.3-0.3-0.5-0.5-0.6l-11.7-5.4l4.3-9.8c0.2-0.4,0.1-0.8-0.2-1.1c-0.3-0.3-0.7-0.4-1-0.3
	l-21.4,6.2c-0.3,0.1-0.5,0.3-0.6,0.5l-5.4,11.6l-9.6-4.3c-0.4-0.2-0.8-0.1-1.1,0.2c-0.3,0.3-0.4,0.7-0.3,1l6.2,21.4
	c0.1,0.3,0.3,0.5,0.5,0.6l1.4,0.7l-14.6,14.6c-1.6,1.6-1.6,4.2,0,5.8l1,1c0.8,0.8,1.9,1.2,2.9,1.2c1.1,0,2.1-0.4,2.9-1.2l17.1-17.1
	l0.9,0.4l-4.3,9.8c-0.2,0.4-0.1,0.8,0.2,1.1c0.2,0.2,0.5,0.3,0.8,0.3c0.1,0,0.2,0,0.3,0l21.4-6.2c0.3-0.1,0.5-0.3,0.6-0.5l5.4-11.6
	l9.6,4.3c0.1,0.1,0.3,0.1,0.4,0.1c0.2,0,0.5-0.1,0.7-0.2C-337.6,137.4-337.5,137-337.6,136.6z M-346.8,115.6l-14.1,5.4
	c-0.1-0.1-0.2-0.2-0.3-0.3l4.4-9.8L-346.8,115.6z M-368.2,124.9c0-2.1,1.7-3.8,3.8-3.8c2.1,0,3.8,1.7,3.8,3.8s-1.7,3.8-3.8,3.8
	C-366.5,128.7-368.2,127-368.2,124.9z M-363,119.9c-0.5-0.1-0.9-0.2-1.4-0.2c-1.2,0-2.2,0.4-3.1,1l-5.6-14.7l18.8-5.5L-363,119.9z
	 M-373.9,107.2l5.5,14.3c0,0-0.1,0.1-0.1,0.2l-10-4.4L-373.9,107.2z M-388.8,114.8l19.3,8.6c-0.2,0.5-0.3,1-0.3,1.6
	c0,1.1,0.4,2.2,1,3l-14.6,5.6L-388.8,114.8z M-392.3,156.1c-0.8,0.8-2.2,0.8-3,0l-1-1c-0.8-0.8-0.8-2.2,0-3l15.1-15.1l5.5,2.6
	L-392.3,156.1z M-382.1,134.3l14.1-5.4c0.1,0.1,0.2,0.2,0.3,0.3l-4.4,9.8L-382.1,134.3z M-365.9,130c0.5,0.1,0.9,0.2,1.4,0.2
	c1.2,0,2.2-0.4,3.1-1l5.6,14.7l-18.8,5.5L-365.9,130z M-355,142.7l-5.5-14.3c0,0,0.1-0.1,0.1-0.2l10,4.4L-355,142.7z M-359.4,126.5
	c0.2-0.5,0.3-1,0.3-1.6c0-1.1-0.4-2.2-1-3l14.6-5.6l5.5,18.8L-359.4,126.5z"/>
</svg>
