<?xml version="1.0" encoding="utf-8"?>
<!-- Generator: Adobe Illustrator 15.0.2, SVG Export Plug-In . SVG Version: 6.00 Build 0)  -->
<!DOCTYPE svg PUBLIC "-//W3C//DTD SVG 1.1//EN" "http://www.w3.org/Graphics/SVG/1.1/DTD/svg11.dtd">
<svg version="1.1" id="Layer_1" xmlns="http://www.w3.org/2000/svg" xmlns:xlink="http://www.w3.org/1999/xlink" x="0px" y="0px"
	 width="70px" height="64px" viewBox="0 0 70 64" enable-background="new 0 0 70 64" xml:space="preserve">
<path d="M13.366,53.418c-2.053,0-4.015-0.642-5.672-1.855c-2.071-1.517-3.426-3.749-3.818-6.287
	c-0.392-2.538,0.228-5.076,1.744-7.145c1.319-1.801,3.179-3.062,5.309-3.618l-0.353-2.29c-2.738,0.657-5.132,2.246-6.816,4.544
	c-1.881,2.565-2.65,5.712-2.164,8.86c0.484,3.146,2.165,5.914,4.734,7.795c2.054,1.505,4.484,2.301,7.028,2.301
	c3.458,0,6.755-1.512,9.004-4.087l-1.869-1.369C18.686,52.256,16.088,53.418,13.366,53.418z"/>
<path d="M67.337,49.02c1.394-2.861,1.588-6.095,0.548-9.106c-0.93-2.689-2.749-4.912-5.173-6.349l-1.014,2.083
	c1.873,1.161,3.279,2.915,4.007,5.023c0.839,2.425,0.682,5.032-0.442,7.341c-1.12,2.307-3.075,4.041-5.504,4.883
	c-2.421,0.831-5.048,0.672-7.345-0.443c-2.309-1.121-4.043-3.075-4.883-5.503c-0.727-2.113-0.702-4.358,0.054-6.423l-2.084-1.013
	c-1.021,2.626-1.079,5.496-0.148,8.185c1.038,3.011,3.187,5.435,6.051,6.827c2.853,1.388,6.12,1.584,9.107,0.547
	C63.521,54.032,65.945,51.883,67.337,49.02z"/>
<path d="M55.245,43.145l2.225-0.605l-6.155-22.702v-3.021h-2.308v2.526l-20.686,8.273L10.25,41.079l0.003,3.881h23.269
	l16.164-22.194L55.245,43.145z M32.35,42.653H11.992l17.329-12.954l17.583-7.031L32.35,42.653z"/>
<rect x="53.317" y="6.997" transform="matrix(0.2432 0.97 -0.97 0.2432 51.346 -44.9359)" width="2.305" height="6.877"/>
<rect x="20.931" y="17.894" transform="matrix(-0.9863 0.1648 -0.1648 -0.9863 55.735 33.4684)" width="11.096" height="2.306"/>
</svg>
