<?xml version="1.0" encoding="utf-8"?>
<!-- Generator: Adobe Illustrator 15.0.2, SVG Export Plug-In . SVG Version: 6.00 Build 0)  -->
<!DOCTYPE svg PUBLIC "-//W3C//DTD SVG 1.1//EN" "http://www.w3.org/Graphics/SVG/1.1/DTD/svg11.dtd">
<svg version="1.1" id="Layer_1" xmlns="http://www.w3.org/2000/svg" xmlns:xlink="http://www.w3.org/1999/xlink" x="0px" y="0px"
	 width="64px" height="64px" viewBox="0 0 64 64" enable-background="new 0 0 64 64" xml:space="preserve">
<path d="M40.104,1.417l-4.908,4.958c-2.921,2.921-4.528,6.799-4.528,10.923c0.002,4.125,1.608,8.002,4.524,10.916
	c2.919,2.917,6.796,4.523,10.918,4.523c4.121,0,7.998-1.605,10.916-4.521l4.961-4.948L40.104,1.417z M55.534,26.722
	c-2.519,2.517-5.866,3.904-9.425,3.904c-3.562,0-6.909-1.387-9.426-3.905c-2.519-2.518-3.906-5.865-3.908-9.424
	c0-3.56,1.391-6.911,3.916-9.437l3.42-3.455l18.887,18.862L55.534,26.722z"/>
<path d="M46.823,38.41l-5.605,14.943L6.284,59.788L21.2,45.69l0.651,0.393c1.126,0.68,2.409,1.039,3.708,1.039
	c3.981,0,7.22-3.238,7.22-7.22c0-3.98-3.239-7.219-7.22-7.219c-3.98,0-7.219,3.238-7.219,7.219c0,1.259,0.338,2.506,0.977,3.607
	l0.397,0.685L4.33,58.734l3.721-32.562l17.147-9.524l-1.025-1.845L6.079,24.856L1.746,62.771l41.032-7.56L48.8,39.151L46.823,38.41z
	 M25.559,34.793c2.817,0,5.11,2.292,5.11,5.109s-2.292,5.109-5.11,5.109c-2.817,0-5.109-2.292-5.109-5.109
	S22.742,34.793,25.559,34.793z"/>
</svg>
