<?xml version="1.0" encoding="utf-8"?>
<!-- Generator: Adobe Illustrator 19.1.0, SVG Export Plug-In . SVG Version: 6.00 Build 0)  -->
<svg version="1.1" id="Layer_1" xmlns="http://www.w3.org/2000/svg" xmlns:xlink="http://www.w3.org/1999/xlink" x="0px" y="0px"
	 viewBox="-265 388.9 64 64" style="enable-background:new -265 388.9 64 64;" xml:space="preserve">
<g>
	<g>
		<polygon points="-209.5,451.9 -256.5,451.9 -256.5,426.3 -254.5,426.3 -254.5,449.9 -211.5,449.9 -211.5,426.3 -209.5,426.3 		"/>
	</g>
	<g>
		<polygon points="-203,424.9 -233,393 -263,424.9 -264.5,423.6 -233,390 -201.5,423.6 		"/>
	</g>
	<g>
		<polygon points="-225.9,444.7 -227.9,444.7 -227.9,429.4 -238.1,429.4 -238.1,444.7 -240.1,444.7 -240.1,427.4 -225.9,427.4 		"/>
	</g>
	<g>
		<g>
			<path d="M-233,421.2c-3.9,0-7.1-3.2-7.1-7.1s3.2-7.1,7.1-7.1s7.1,3.2,7.1,7.1S-229.1,421.2-233,421.2z M-233,408.9
				c-2.8,0-5.1,2.3-5.1,5.1c0,2.8,2.3,5.1,5.1,5.1c2.8,0,5.1-2.3,5.1-5.1C-227.9,411.2-230.2,408.9-233,408.9z"/>
		</g>
	</g>
</g>
</svg>
