<?xml version="1.0" encoding="utf-8"?>
<!-- Generator: Adobe Illustrator 15.0.2, SVG Export Plug-In . SVG Version: 6.00 Build 0)  -->
<!DOCTYPE svg PUBLIC "-//W3C//DTD SVG 1.1//EN" "http://www.w3.org/Graphics/SVG/1.1/DTD/svg11.dtd">
<svg version="1.1" id="Layer_1" xmlns="http://www.w3.org/2000/svg" xmlns:xlink="http://www.w3.org/1999/xlink" x="0px" y="0px"
	 width="77px" height="64px" viewBox="0 0 77 64" enable-background="new 0 0 77 64" xml:space="preserve">
<g>
	<rect x="25.417" y="42.401" width="26.167" height="1.968"/>
	<path d="M38.861,2.983h-0.723c-13.185,0-23.981,9.023-24.587,20.315h1.971C16.134,13.094,26.044,4.951,38.139,4.951h0.723
		c12.095,0,22.007,8.143,22.617,18.348h1.971C62.844,12.008,52.047,2.983,38.861,2.983z"/>
	<path d="M64.73,26.231c-5.031,0-9.127,4.094-9.127,9.127v8.959h1.969v-8.959c0-3.948,3.211-7.159,7.158-7.159
		s7.156,3.211,7.156,7.159c0,3.947-3.209,7.158-7.156,7.158h-0.982l0.008,7.83c0.1,1.004-0.053,3.375-1.359,4.813
		c-0.857,0.946-2.082,1.407-3.738,1.407H18.343c-1.66,0-2.884-0.461-3.744-1.408c-1.304-1.436-1.458-3.801-1.356-4.85l0.006-7.793
		h-0.983c-3.947,0-7.158-3.213-7.158-7.16s3.211-7.158,7.158-7.158c3.948,0,7.16,3.211,7.16,7.158v8.959h1.968v-8.959
		c0-5.032-4.095-9.126-9.127-9.126c-5.032,0-9.125,4.094-9.125,9.126c0,4.338,3.086,8.103,7.337,8.951l0.804,0.16v5.635
		c-0.058,0.729-0.222,4.061,1.84,6.355c0.527,0.587,1.178,1.062,1.933,1.409l0.581,0.269v2.881h12.888v-2.481h19.948v2.481h12.887
		v-2.879l0.582-0.269c0.754-0.349,1.404-0.823,1.936-1.412c2.066-2.302,1.896-5.627,1.844-6.271l-0.004-5.721l0.805-0.16
		c4.25-0.848,7.336-4.611,7.336-8.949C73.854,30.326,69.762,26.231,64.73,26.231z"/>
</g>
</svg>
