<?xml version="1.0" encoding="utf-8"?>
<!-- Generator: Adobe Illustrator 15.0.2, SVG Export Plug-In . SVG Version: 6.00 Build 0)  -->
<!DOCTYPE svg PUBLIC "-//W3C//DTD SVG 1.1//EN" "http://www.w3.org/Graphics/SVG/1.1/DTD/svg11.dtd">
<svg version="1.1" id="Layer_1" xmlns="http://www.w3.org/2000/svg" xmlns:xlink="http://www.w3.org/1999/xlink" x="0px" y="0px"
	 width="64px" height="64px" viewBox="0 0 64 64" enable-background="new 0 0 64 64" xml:space="preserve">
<path d="M27,10.002c0-4.962-4.037-9-8.999-9c-4.962,0-9,4.038-9,9v25h2v-25c0-3.86,3.14-7,7-7c3.859,0,6.999,3.14,6.999,7V58
	c0,1.654-1.346,3-3,3c-1.654,0-2.999-1.346-2.999-3V37.002h-2V58c0,2.757,2.243,5,4.999,5c2.757,0,5-2.243,5-5V10.002z"/>
<path d="M49,27.414l5.999-6V2H53v18.585l-6,6v32.411c0,1.654-1.346,3-3,3s-3-1.346-3-3V26.585l-6-6V2h-2v19.413l6,6v31.583
	c0,2.758,2.243,5,5,5s5-2.242,5-5V27.414z"/>
<rect x="43.001" y="1.004" width="2" height="18"/>
</svg>
